HIERARCHY
ROOT Hips
{
	OFFSET 0.000000 0.000000 0.000000
	CHANNELS 6 Xposition Yposition Zposition Xrotation Yrotation Zrotation
	JOINT C_ctrl
	{
		OFFSET 0.000000 35.040482 -0.000011
		CHANNELS 3 Xrotation Yrotation Zrotation
		JOINT Bip01
		{
			OFFSET -41.537640 41.789009 -0.000007
			CHANNELS 3 Xrotation Yrotation Zrotation
			JOINT Bip01_Pelvis
			{
				OFFSET -2.462887 0.000000 0.000000
				CHANNELS 3 Xrotation Yrotation Zrotation
				JOINT BN_Tail_01
				{
					OFFSET -11.399368 7.351341 -0.000013
					CHANNELS 3 Xrotation Yrotation Zrotation
					JOINT BN_Tail_02
					{
						OFFSET -11.365196 -0.343025 0.000012
						CHANNELS 3 Xrotation Yrotation Zrotation
						JOINT BN_Tail_03
						{
							OFFSET -15.076256 -0.454979 0.000017
							CHANNELS 3 Xrotation Yrotation Zrotation
							JOINT BN_Tail_04
							{
								OFFSET -17.395691 -0.525002 0.000016
								CHANNELS 3 Xrotation Yrotation Zrotation
								JOINT BN_Tail_05
								{
									OFFSET -16.699837 -0.504005 0.000016
									CHANNELS 3 Xrotation Yrotation Zrotation
									End Site
									{
										OFFSET 0.503998 -16.699829 0.000067
									}
								}
							}
						}
					}
				}
				JOINT Bip01_Spine
				{
					OFFSET 8.297798 5.916809 -0.000020
					CHANNELS 3 Xrotation Yrotation Zrotation
					JOINT Bip01_R_Thigh
					{
						OFFSET -8.297779 -5.916794 10.541781
						CHANNELS 3 Xrotation Yrotation Zrotation
						JOINT Bip01_R_Calf
						{
							OFFSET 5.631542 -22.906792 0.862690
							CHANNELS 3 Xrotation Yrotation Zrotation
							JOINT Bip01_R_HorseLink
							{
								OFFSET -16.984341 -19.231926 -3.555767
								CHANNELS 3 Xrotation Yrotation Zrotation
								JOINT Bip01_R_Foot
								{
									OFFSET 4.290367 -24.783146 0.578056
									CHANNELS 3 Xrotation Yrotation Zrotation
									JOINT Bip01_R_Toe0
									{
										OFFSET 3.561211 -5.815116 0.760802
										CHANNELS 3 Xrotation Yrotation Zrotation
										JOINT Bip01_R_Toe0Nub
										{
											OFFSET 16.135469 0.002017 1.534789
											CHANNELS 3 Xrotation Yrotation Zrotation
											End Site
											{
												OFFSET -0.000002 16.208284 -0.000056
											}
										}
									}
								}
							}
						}
					}
					JOINT Bip01_L_Thigh
					{
						OFFSET -8.297813 -5.916832 -10.541739
						CHANNELS 3 Xrotation Yrotation Zrotation
						JOINT Bip01_L_Calf
						{
							OFFSET 5.631535 -22.906792 -0.862625
							CHANNELS 3 Xrotation Yrotation Zrotation
							JOINT Bip01_L_HorseLink
							{
								OFFSET -16.984318 -19.231949 3.555875
								CHANNELS 3 Xrotation Yrotation Zrotation
								JOINT Bip01_L_Foot
								{
									OFFSET 4.290367 -24.783169 -0.577965
									CHANNELS 3 Xrotation Yrotation Zrotation
									JOINT Bip01_L_Toe0
									{
										OFFSET 3.561245 -5.815111 -0.760799
										CHANNELS 3 Xrotation Yrotation Zrotation
										JOINT Bip01_L_Toe0Nub
										{
											OFFSET 6.574303 -0.000005 -1.538561
											CHANNELS 3 Xrotation Yrotation Zrotation
											End Site
											{
												OFFSET 0.000004 -6.751935 0.000023
											}
										}
									}
								}
							}
						}
					}
					JOINT Bip01_Spine1
					{
						OFFSET 20.556803 -4.626213 -0.000025
						CHANNELS 3 Xrotation Yrotation Zrotation
						JOINT Saddle
						{
							OFFSET 17.608810 18.174690 -0.000143
							CHANNELS 3 Xrotation Yrotation Zrotation
							End Site
							{
								OFFSET -0.000063 -0.000061 -22.448387
							}
						}
						JOINT BN_center
						{
							OFFSET 10.743275 -13.417107 -0.172041
							CHANNELS 3 Xrotation Yrotation Zrotation
							End Site
							{
								OFFSET 22.434088 0.553078 -0.579614
							}
						}
						JOINT Bip01_Spine2
						{
							OFFSET 24.765072 -2.054115 -0.000032
							CHANNELS 3 Xrotation Yrotation Zrotation
							JOINT Handle
							{
								OFFSET 63.735676 16.430748 -16.052464
								CHANNELS 3 Xrotation Yrotation Zrotation
								JOINT IK_Chain01
								{
									OFFSET -4.713058 -6.020439 0.185448
									CHANNELS 3 Xrotation Yrotation Zrotation
									End Site
									{
										OFFSET -0.000023 -0.000023 -7.648071
									}
								}
							}
							JOINT BN_hair04_01
							{
								OFFSET 1.987491 16.256981 -2.049672
								CHANNELS 3 Xrotation Yrotation Zrotation
								JOINT BN_hair04_02
								{
									OFFSET -1.318762 -3.831451 -6.174704
									CHANNELS 3 Xrotation Yrotation Zrotation
									JOINT BN_hair04_03
									{
										OFFSET -0.827490 -5.886627 -5.656666
										CHANNELS 3 Xrotation Yrotation Zrotation
										End Site
										{
											OFFSET -2.658262 5.010620 -5.929780
										}
									}
								}
							}
							JOINT Bip01_Neck
							{
								OFFSET 25.574577 9.433014 -0.000084
								CHANNELS 3 Xrotation Yrotation Zrotation
								JOINT Bip01_R_Clavicle
								{
									OFFSET -16.535652 0.011192 6.705692
									CHANNELS 3 Xrotation Yrotation Zrotation
									JOINT Bip01_R_UpperArm
									{
										OFFSET 20.272621 -12.959984 2.510816
										CHANNELS 3 Xrotation Yrotation Zrotation
										JOINT Bip01_R_Forearm
										{
											OFFSET -13.633509 -15.503704 -0.653585
											CHANNELS 3 Xrotation Yrotation Zrotation
											JOINT Bip01_R_Hand
											{
												OFFSET 2.580030 -27.804676 -1.136415
												CHANNELS 3 Xrotation Yrotation Zrotation
												JOINT Bip01_R_Finger0
												{
													OFFSET -0.281744 -19.659061 -0.398649
													CHANNELS 3 Xrotation Yrotation Zrotation
													JOINT Bip01_Xtra02
													{
														OFFSET 4.152210 -5.712314 0.433813
														CHANNELS 3 Xrotation Yrotation Zrotation
														JOINT Bip01_Xtra02Nub
														{
															OFFSET 15.457960 0.041654 0.507982
															CHANNELS 3 Xrotation Yrotation Zrotation
															End Site
															{
																OFFSET -15.421730 -0.157725 -1.163459
															}
														}
													}
													JOINT Bip01_R_Finger0Nub
													{
														OFFSET 8.362326 -9.718440 -0.143142
														CHANNELS 3 Xrotation Yrotation Zrotation
														End Site
														{
															OFFSET -1.213036 -0.198171 9.872291
														}
													}
												}
											}
										}
									}
								}
								JOINT Bip01_L_Clavicle
								{
									OFFSET -16.535673 0.011162 -6.705583
									CHANNELS 3 Xrotation Yrotation Zrotation
									JOINT Bip01_L_UpperArm
									{
										OFFSET 20.272615 -12.959999 -2.510836
										CHANNELS 3 Xrotation Yrotation Zrotation
										JOINT Bip01_L_Forearm
										{
											OFFSET -13.633495 -15.503681 0.653678
											CHANNELS 3 Xrotation Yrotation Zrotation
											JOINT Bip01_L_Hand
											{
												OFFSET 2.579988 -27.804686 1.136487
												CHANNELS 3 Xrotation Yrotation Zrotation
												JOINT Bip01_L_Finger0
												{
													OFFSET -0.281765 -19.659058 0.398696
													CHANNELS 3 Xrotation Yrotation Zrotation
													JOINT Bip01_Xtra01
													{
														OFFSET 4.083549 -5.738758 -0.666714
														CHANNELS 3 Xrotation Yrotation Zrotation
														JOINT Bip01_Xtra01Nub
														{
															OFFSET 6.758158 -0.395525 -0.023239
															CHANNELS 3 Xrotation Yrotation Zrotation
															End Site
															{
																OFFSET 6.764923 -0.254147 -0.029908
															}
														}
													}
													JOINT Bip01_L_Finger0Nub
													{
														OFFSET -0.012636 -9.629153 0.045740
														CHANNELS 3 Xrotation Yrotation Zrotation
														End Site
														{
															OFFSET 0.988407 0.004791 8.293357
														}
													}
												}
											}
										}
									}
								}
								JOINT BN_hair03_01
								{
									OFFSET -5.894140 16.270622 -2.498433
									CHANNELS 3 Xrotation Yrotation Zrotation
									JOINT BN_hair03_02
									{
										OFFSET -0.189278 -7.800507 -6.219162
										CHANNELS 3 Xrotation Yrotation Zrotation
										JOINT BN_hair03_03
										{
											OFFSET 0.612345 -10.844475 -3.370718
											CHANNELS 3 Xrotation Yrotation Zrotation
											End Site
											{
												OFFSET -2.273296 2.862007 -10.769416
											}
										}
									}
								}
								JOINT Bip01_Neck1
								{
									OFFSET 9.383755 11.908699 -0.000007
									CHANNELS 3 Xrotation Yrotation Zrotation
									JOINT BN_hair02_01
									{
										OFFSET 9.126320 18.808022 -1.420810
										CHANNELS 3 Xrotation Yrotation Zrotation
										JOINT BN_hair02_02
										{
											OFFSET 0.393478 -5.181091 -5.248574
											CHANNELS 3 Xrotation Yrotation Zrotation
											JOINT BN_hair02_03
											{
												OFFSET 0.762280 -8.167076 -0.230047
												CHANNELS 3 Xrotation Yrotation Zrotation
												End Site
												{
													OFFSET -0.025837 -1.251419 -8.109770
												}
											}
										}
									}
									JOINT Bip01_Head
									{
										OFFSET 14.266129 10.475403 -0.000008
										CHANNELS 3 Xrotation Yrotation Zrotation
										JOINT BN_Reins_01
										{
											OFFSET 18.547455 -15.740112 -0.000035
											CHANNELS 3 Xrotation Yrotation Zrotation
											JOINT BN_Reins_02
											{
												OFFSET -5.372810 -5.884506 0.000028
												CHANNELS 3 Xrotation Yrotation Zrotation
												JOINT BN_Reins_03
												{
													OFFSET -6.395866 -15.947449 0.000070
													CHANNELS 3 Xrotation Yrotation Zrotation
													JOINT BN_Halter_R_01
													{
														OFFSET -1.234055 -3.096100 7.096737
														CHANNELS 3 Xrotation Yrotation Zrotation
														End Site
														{
															OFFSET 10.514435 -4.176861 -0.000004
														}
													}
													JOINT BN_Halter_L_01
													{
														OFFSET -1.234062 -3.096146 -7.096726
														CHANNELS 3 Xrotation Yrotation Zrotation
														End Site
														{
															OFFSET -10.514435 4.176865 -0.000000
														}
													}
													JOINT BN_Reins_04
													{
														OFFSET -6.737644 -16.971684 0.000074
														CHANNELS 3 Xrotation Yrotation Zrotation
														JOINT BN_Halter_R_02
														{
															OFFSET -4.688869 -11.781956 7.096771
															CHANNELS 3 Xrotation Yrotation Zrotation
															End Site
															{
																OFFSET 14.669624 -5.827511 -0.000006
															}
														}
														JOINT BN_Halter_L_02
														{
															OFFSET -4.688892 -11.782017 -7.096693
															CHANNELS 3 Xrotation Yrotation Zrotation
															End Site
															{
																OFFSET -14.669624 5.827507 -0.000002
															}
														}
														JOINT BN_Reins_05
														{
															OFFSET -6.822578 -16.971161 0.000074
															CHANNELS 3 Xrotation Yrotation Zrotation
															JOINT BN_Reins_06
															{
																OFFSET -6.140354 -15.095148 0.000066
																CHANNELS 3 Xrotation Yrotation Zrotation
																End Site
																{
																	OFFSET -15.095150 6.140352 -0.000002
																}
															}
														}
													}
												}
											}
										}
										JOINT BN_hair01_01
										{
											OFFSET 8.957344 8.870956 0.112121
											CHANNELS 3 Xrotation Yrotation Zrotation
											JOINT BN_hair01_02
											{
												OFFSET 6.002075 -2.962952 -3.121264
												CHANNELS 3 Xrotation Yrotation Zrotation
												End Site
												{
													OFFSET 5.917702 3.813591 -2.232396
												}
											}
										}
										JOINT BN_Eyebrow_R
										{
											OFFSET 11.795959 -0.430496 4.449781
											CHANNELS 3 Xrotation Yrotation Zrotation
											JOINT Bip01_Xtra06Nub
											{
												OFFSET 2.936661 -0.262573 3.246701
												CHANNELS 3 Xrotation Yrotation Zrotation
												End Site
												{
													OFFSET 2.768745 0.208199 3.394807
												}
											}
										}
										JOINT BN_Eyebrow_L
										{
											OFFSET 11.586395 -0.445618 -4.441728
											CHANNELS 3 Xrotation Yrotation Zrotation
											JOINT Bip01_Xtra05Nub
											{
												OFFSET 3.244698 -0.349442 -4.416700
												CHANNELS 3 Xrotation Yrotation Zrotation
												End Site
												{
													OFFSET 3.053162 0.072495 -4.564033
												}
											}
										}
										JOINT Bip01_R_Ear_01
										{
											OFFSET 7.142960 7.567184 4.311657
											CHANNELS 3 Xrotation Yrotation Zrotation
											JOINT Bip01_Xtra04Nub
											{
												OFFSET 9.464531 9.264214 1.682953
												CHANNELS 3 Xrotation Yrotation Zrotation
												End Site
												{
													OFFSET 8.448181 10.159340 1.910823
												}
											}
										}
										JOINT Bip01__L_Ear_01
										{
											OFFSET 7.214943 7.717056 -4.356771
											CHANNELS 3 Xrotation Yrotation Zrotation
											JOINT Bip01_Xtra03Nub
											{
												OFFSET 9.230225 8.944366 -2.322746
												CHANNELS 3 Xrotation Yrotation Zrotation
												End Site
												{
													OFFSET 8.170288 9.841324 -2.643566
												}
											}
										}
										JOINT Bip01_Jaw
										{
											OFFSET 9.196068 -4.110695 -0.000013
											CHANNELS 3 Xrotation Yrotation Zrotation
											JOINT Bip01_Ponytail1Nub
											{
												OFFSET 10.976463 -21.082108 -0.000053
												CHANNELS 3 Xrotation Yrotation Zrotation
												End Site
												{
													OFFSET 11.247093 -20.938980 0.000113
												}
											}
										}
										JOINT Bip01_HeadNub
										{
											OFFSET 29.954575 -18.249489 -0.000063
											CHANNELS 3 Xrotation Yrotation Zrotation
											End Site
											{
												OFFSET -9.198448 -13.366348 0.000168
											}
										}
									}
								}
							}
						}
					}
				}
			}
		}
	}
}
MOTION
Frames: 4
Frame Time: 0.033333
0.000000 0.000000 0.000000 0.000008 0.000000 -0.000000 -0.000000 0.000000 -0.000000 0.000000 0.000000 -0.000006 0.003491 -0.000000 -0.000008 0.582112 -2.533090 22.722190 -1.423533 3.067917 23.653135 -0.420584 1.153913 21.214258 0.327668 -0.922998 11.725000 0.203947 -1.572312 6.770905 0.143672 0.000484 10.382443 -6.188781 5.669019 -7.202849 0.531247 0.016600 -2.692625 0.031708 0.001717 -0.160761 6.395004 -4.509060 0.248394 0.000728 -0.000020 -0.003715 0.000101 -0.000138 0.000004 1.167256 -4.088668 -25.334054 1.988953 0.287738 10.188853 -0.033933 -0.001822 -0.172196 -4.321383 3.693018 5.059488 -0.000871 0.000017 -0.003712 -0.011945 -0.008653 -0.036690 0.143184 -0.019006 -11.498069 0.917530 -0.020778 6.784392 1.530316 -0.151080 -0.014733 -0.052408 1.540617 -5.471444 0.000078 -0.000112 -0.000056 -0.000052 -0.014928 0.015042 -0.008350 0.000143 0.012208 -1.358238 0.409830 -0.217205 4.630808 -0.692456 0.247577 3.912570 0.384486 -20.925963 -3.451295 -1.873367 20.031724 -3.207962 -0.975643 4.844459 -0.000569 -0.130206 3.174626 7.444560 1.278314 -1.147230 -3.074511 -0.038695 0.688097 -1.002534 -0.004253 -0.069889 -0.802191 0.160618 -0.479873 -0.804181 0.123500 -0.482649 -3.552863 -1.707594 20.499771 2.899527 -2.371097 6.291642 -0.001239 -0.031386 -0.766036 -8.638696 -2.083549 3.589020 4.960862 0.006871 -0.600853 2.691733 2.076474 -0.752314 0.036609 0.063833 2.451881 -0.000913 0.100574 2.451955 -0.000156 0.000012 0.000257 -0.084341 0.071525 -0.302021 1.007131 -0.951697 3.765736 -0.126582 1.503369 -6.994504 -0.020470 0.003925 0.021261 1.575987 0.281607 -4.546335 -1.621144 -1.254890 -7.198354 -3.002041 -4.940461 29.017362 -0.000029 0.000324 33.480057 -0.441787 -0.458728 -72.796129 -0.000060 -0.000072 -21.993998 0.000020 -0.000008 -0.026805 0.000002 -0.000016 0.012750 -0.000096 -0.000109 -34.639899 0.000036 0.000015 0.015168 0.000025 -0.000010 0.012721 -0.000048 -0.000055 -24.223455 0.000013 -0.000013 -0.000048 -0.000451 0.000209 0.000111 7.012410 1.751781 7.564550 -8.277014 -15.533133 1.371288 0.024183 -0.030004 11.786593 0.012327 -0.002717 0.003929 0.023217 -0.032301 11.715983 0.089451 -0.130631 0.175108 0.050269 0.015094 11.755976 -0.154133 0.027260 -0.044371 0.050132 0.014749 11.743144 0.646568 0.597925 -1.496397 -0.004506 -0.052578 11.750689 0.000071 -0.000033 11.750675 
0.000000 0.000000 0.000000 0.000008 0.000000 -0.000000 -0.000000 0.000000 -0.000000 0.000000 0.000000 -0.000006 -0.014058 0.095816 0.063929 0.590530 -2.551673 22.700125 -1.428937 3.077778 23.631403 -0.422848 1.164504 21.203330 0.338608 -1.048104 11.885818 0.073122 -1.178698 7.012812 0.168965 -0.613151 10.162002 -6.691604 6.147269 -3.311928 1.098124 0.006783 -5.564862 0.173350 0.008190 -0.878992 6.249815 -4.498892 0.213138 0.000728 -0.000019 -0.003715 0.000101 -0.000139 0.000004 1.940497 -3.803430 -20.724732 1.002031 0.099782 5.101566 0.141049 0.008603 0.715698 -4.193596 3.673715 4.824817 -0.000871 0.000018 -0.003712 -0.011945 -0.008653 -0.036690 0.540970 0.387886 -11.050410 0.917530 -0.020778 6.784391 1.530343 -0.151079 -0.014734 0.672933 1.925719 -5.417821 0.000078 -0.000112 -0.000056 -0.000051 -0.014927 0.015042 -0.008435 -0.027287 0.020872 -1.383157 0.384269 -0.187783 4.647205 -0.798105 0.372398 3.023067 0.336515 -20.767463 -2.645006 -1.505237 19.894287 -4.352269 -1.381807 4.490636 0.005389 -0.251636 6.139156 7.630254 0.958542 -3.843119 -3.038297 -0.036683 0.373706 -1.002661 -0.004254 -0.069902 -0.802219 0.160617 -0.479875 -0.804181 0.123501 -0.482649 -2.738830 -1.338553 20.371055 1.809800 -2.795155 7.105963 0.000734 0.028459 0.693775 -8.655049 -1.778020 1.186782 5.043227 0.008488 0.065706 2.699817 2.165632 -0.761338 0.036637 0.063833 2.451874 -0.000913 0.100573 2.451955 -0.007881 -0.010251 0.012982 -0.091970 0.060468 -0.277684 0.986901 -0.997254 3.887490 0.300210 2.161225 -7.407407 -0.036196 -0.013291 0.051825 1.603155 0.281985 -4.516428 -1.624268 -1.247185 -7.183750 -3.239853 -5.662897 28.351820 -0.000029 0.000324 33.480064 -0.441787 -0.458728 -72.796129 -0.000060 -0.000072 -21.993998 0.000020 -0.000008 -0.026805 0.000002 -0.000016 0.012749 -0.000096 -0.000109 -34.639902 0.000036 0.000015 0.015170 0.000025 -0.000010 0.012730 -0.000048 -0.000055 -24.223452 0.000013 -0.000013 -0.000050 0.058385 -0.025294 0.134994 7.201412 1.730535 7.999116 -8.311305 -15.606864 1.360137 0.024205 -0.029997 11.786613 0.012370 -0.002607 0.003948 0.023233 -0.032298 11.715959 0.052516 -0.188821 0.749478 0.050284 0.015117 11.755984 -0.122637 0.117088 0.518265 0.050143 0.014772 11.743140 0.646652 0.598126 -1.481832 -0.004488 -0.052599 11.750688 0.000071 -0.000033 11.750678 
0.000000 0.000000 0.000000 0.000008 0.000000 -0.000000 -0.000000 0.000000 -0.000000 0.000000 0.000000 -0.000006 -0.045639 0.223833 0.150623 0.613775 -2.602952 22.638329 -1.439656 3.100532 23.568399 -0.435944 1.193572 21.171951 0.365378 -1.383134 12.092949 -0.056775 -0.793274 7.250873 0.192386 -1.736914 9.716868 -7.214412 7.017212 1.174330 1.745766 -0.039339 -8.854045 0.295754 0.012352 -1.499390 6.113690 -4.504930 0.161525 0.000731 -0.000020 -0.003728 0.000101 -0.000138 0.000004 2.805247 -2.974908 -16.061176 0.008885 0.000463 0.045034 0.398436 0.028888 2.023411 -4.106452 3.685339 4.252285 -0.000871 0.000017 -0.003712 -0.011945 -0.008654 -0.036690 1.284697 1.178127 -10.185701 0.917530 -0.020778 6.784390 1.530370 -0.151092 -0.014734 2.035040 2.664750 -5.247351 0.000078 -0.000112 -0.000056 -0.000051 -0.014928 0.015042 -0.027597 -0.100239 0.072897 -1.422232 0.319326 -0.120352 4.663516 -0.901751 0.494775 2.240134 0.443527 -21.223621 -1.862097 -1.339036 20.366205 -6.484348 -2.135595 3.536469 0.016373 -0.362622 8.858643 7.873660 0.625157 -5.620060 -2.935344 -0.030447 -0.472772 -1.002447 -0.004218 -0.069869 -0.802245 0.160617 -0.479877 -0.804181 0.123502 -0.482649 -1.954166 -1.190598 20.954383 -0.248783 -3.574600 8.576333 0.000255 0.008806 0.214508 -8.555136 -1.539676 -0.210546 5.200430 0.018306 1.363968 2.707800 2.252933 -0.770197 0.036663 0.063833 2.451881 -0.000913 0.100573 2.451956 -0.029782 -0.038987 0.048909 -0.099433 0.049625 -0.253816 0.967152 -1.041970 4.006887 0.555203 2.824591 -7.640015 -0.023646 -0.054515 0.084240 1.601287 0.282926 -4.455870 -1.607675 -1.231832 -7.090725 -3.882411 -6.707273 27.243418 -0.000029 0.000324 33.480061 -0.441787 -0.458727 -72.796129 -0.000060 -0.000072 -21.993998 0.000020 -0.000008 -0.026805 0.000002 -0.000016 0.012745 -0.000096 -0.000109 -34.639899 0.000036 0.000015 0.015166 0.000025 -0.000010 0.012725 -0.000048 -0.000055 -24.223457 0.000013 -0.000013 -0.000050 0.213712 -0.117435 0.517114 7.386906 1.711105 8.425311 -8.344962 -15.679152 1.349146 0.024219 -0.029996 11.786634 0.012403 -0.002528 0.003938 0.023246 -0.032291 11.715940 -0.001860 -0.281530 1.566533 0.050296 0.015141 11.755983 -0.061440 0.254835 1.329881 0.050155 0.014797 11.743137 0.646717 0.598277 -1.467551 -0.004471 -0.052619 11.750684 0.000072 -0.000033 11.750674 
0.000000 0.000000 0.000000 0.000008 0.000000 -0.000000 -0.000000 0.000000 -0.000000 0.000000 0.000000 -0.000006 -0.092660 0.389153 0.260215 0.651295 -2.686141 22.537961 -1.460285 3.139396 23.466116 -0.456107 1.239371 21.122633 0.417715 -1.915747 12.342597 -0.189566 -0.404582 7.492157 0.204658 -3.176938 9.127306 -7.770297 8.087724 6.165818 2.433583 -0.129580 -12.367516 0.436248 0.015499 -2.211284 5.976205 -4.510907 0.109389 0.000730 -0.000020 -0.003728 0.000101 -0.000137 0.000004 3.721790 -1.793471 -11.330876 -0.983094 -0.011118 -4.981753 0.708807 0.061242 3.603852 -4.053025 3.705452 3.372891 -0.000871 0.000018 -0.003712 -0.011945 -0.008652 -0.036690 2.219848 2.214322 -9.075340 0.917530 -0.020778 6.784392 1.530424 -0.151077 -0.014734 3.786835 3.616357 -5.027697 0.000078 -0.000112 -0.000057 -0.000052 -0.014928 0.015042 -0.046106 -0.227368 0.141078 -1.417389 0.210364 -0.017202 4.680192 -1.006484 0.618336 1.545261 0.661143 -22.096386 -1.111257 -1.313374 21.244742 -9.216494 -3.059860 2.286963 0.030684 -0.461568 11.296455 8.134298 0.275982 -6.685046 -2.773596 -0.028943 -1.786266 -1.002659 -0.004123 -0.069901 -0.802301 0.160617 -0.479867 -0.804181 0.123501 -0.482649 -1.197933 -1.180221 21.936906 -2.854315 -4.549424 10.623467 -0.002350 -0.053433 -1.304215 -8.452608 -1.308942 -1.573681 5.318703 0.025763 2.345054 2.715949 2.341080 -0.779132 0.036719 0.063834 2.451880 -0.000913 0.100573 2.451955 -0.065187 -0.085797 0.107189 -0.125740 0.018372 -0.169776 0.947307 -1.087170 4.127440 0.679875 3.500549 -7.721754 -0.009612 -0.119083 0.136650 1.618650 0.282774 -4.380847 -1.605738 -1.203376 -6.899120 -4.699793 -7.959254 25.698322 -0.000029 0.000324 33.480068 -0.441788 -0.458727 -72.796129 -0.000060 -0.000072 -21.994001 0.000020 -0.000008 -0.026805 0.000002 -0.000016 0.012747 -0.000096 -0.000109 -34.639899 0.000036 0.000015 0.015168 0.000025 -0.000010 0.012721 -0.000048 -0.000054 -24.223452 0.000013 -0.000013 -0.000050 0.490883 -0.235531 1.155883 7.574373 1.692873 8.855778 -8.378980 -15.752153 1.337993 0.024252 -0.029993 11.786681 0.012455 -0.002404 0.003951 0.023278 -0.032288 11.715892 -0.069249 -0.408727 2.612863 0.050321 0.015189 11.755996 0.019898 0.438254 2.358500 0.050180 0.014843 11.743121 0.646791 0.598454 -1.453094 -0.004436 -0.052660 11.750704 0.000072 -0.000033 11.750679 
